<svg width="83" height="18" viewBox="0 0 83 18" fill="none" xmlns="http://www.w3.org/2000/svg">
<path d="M5.6637 17.0081C4.52137 17.0081 3.53767 16.7407 2.71263 16.2059C1.8876 15.6716 1.25296 14.9352 0.808706 13.9966C0.364458 13.0587 0.142334 11.9869 0.142334 10.7814C0.142334 9.55494 0.369749 8.47263 0.824573 7.53445C1.28469 6.59098 1.92462 5.85462 2.74437 5.32526C3.5694 4.7906 4.53194 4.5233 5.63196 4.5233C6.48873 4.5233 7.26091 4.68054 7.94844 4.99503C8.63596 5.30953 9.19921 5.7498 9.63818 6.31581C10.0771 6.88187 10.3495 7.54232 10.4553 8.29703H8.58305C8.44026 7.7467 8.12298 7.25928 7.6311 6.83474C7.14457 6.40495 6.48873 6.19002 5.6637 6.19002C4.93391 6.19002 4.29395 6.37873 3.74393 6.75608C3.19919 7.12825 2.77346 7.65499 2.46671 8.33635C2.16525 9.01247 2.01453 9.80651 2.01453 10.7185C2.01453 11.6515 2.16261 12.4638 2.45878 13.1557C2.76023 13.8475 3.18333 14.3846 3.72806 14.7674C4.27809 15.1502 4.92333 15.3413 5.6637 15.3413C6.15029 15.3413 6.59191 15.2574 6.98855 15.0896C7.38519 14.9218 7.72104 14.6812 7.99605 14.3666C8.27106 14.052 8.46671 13.6744 8.58305 13.2343H10.4553C10.3495 13.9471 10.0877 14.5891 9.66992 15.1607C9.25741 15.7264 8.70997 16.1773 8.02774 16.5129C7.3508 16.8427 6.56281 17.0081 5.6637 17.0081ZM13.1921 16.7564V4.68054H15.0009V6.50451H15.1278C15.3499 5.90699 15.7519 5.4222 16.3336 5.05009C16.9154 4.67792 17.5712 4.49189 18.301 4.49189C18.4385 4.49189 18.6104 4.49452 18.8167 4.49976C19.023 4.505 19.1789 4.51281 19.2847 4.5233V6.41019C19.2212 6.39446 19.0758 6.37087 18.8484 6.33941C18.6263 6.30276 18.3909 6.2844 18.1424 6.2844C17.55 6.2844 17.0212 6.40757 16.5557 6.65389C16.0957 6.89498 15.7307 7.23045 15.461 7.66024C15.1966 8.08478 15.0644 8.56957 15.0644 9.11466V16.7564H13.1921ZM26.242 17.0081C25.0679 17.0081 24.0551 16.7512 23.2037 16.2373C22.3575 15.7188 21.7043 14.9952 21.2442 14.0677C20.7894 13.1347 20.562 12.0498 20.562 10.8128C20.562 9.57591 20.7894 8.48573 21.2442 7.54232C21.7043 6.5936 22.3442 5.85462 23.164 5.32526C23.989 4.7906 24.9515 4.5233 26.0516 4.5233C26.6862 4.5233 27.3129 4.62817 27.9317 4.83779C28.5505 5.04747 29.1137 5.38812 29.6215 5.85986C30.1292 6.32629 30.5337 6.94479 30.8352 7.71523C31.1367 8.48573 31.2874 9.4344 31.2874 10.5613V11.3474H21.8947V9.74364H29.3834C29.3834 9.06228 29.2459 8.45427 28.9709 7.91967C28.7012 7.38507 28.3151 6.96314 27.8127 6.65389C27.3156 6.34465 26.7285 6.19002 26.0516 6.19002C25.3059 6.19002 24.6607 6.37349 24.1159 6.74035C23.5765 7.10204 23.1613 7.57372 22.8704 8.15551C22.5796 8.7373 22.4341 9.36099 22.4341 10.0267V11.0959C22.4341 12.0078 22.5928 12.781 22.9101 13.4152C23.2327 14.0438 23.6796 14.5239 24.2508 14.8536C24.822 15.1787 25.4857 15.3413 26.242 15.3413C26.7338 15.3413 27.1781 15.2731 27.5747 15.1368C27.9766 14.9952 28.3231 14.7855 28.614 14.5082C28.9048 14.225 29.1296 13.8737 29.2883 13.4542L31.097 13.9576C30.9066 14.5658 30.5866 15.1001 30.1371 15.5615C29.6875 16.0177 29.1322 16.3737 28.4712 16.6306C27.8101 16.8823 27.067 17.0081 26.242 17.0081ZM37.7211 17.0396C36.9489 17.0396 36.2482 16.8951 35.6188 16.6073C34.9894 16.3137 34.4897 15.8919 34.1194 15.3413C33.7493 14.7855 33.5641 14.1149 33.5641 13.3284C33.5641 12.6368 33.7016 12.076 33.9767 11.6462C34.2517 11.2112 34.6193 10.8705 35.0794 10.6241C35.5395 10.3778 36.0472 10.1944 36.6025 10.0738C37.1631 9.94802 37.7264 9.84846 38.2923 9.77505C39.0326 9.68072 39.6329 9.61 40.0931 9.5628C40.5584 9.51037 40.8969 9.42391 41.1084 9.30337C41.3253 9.18282 41.4337 8.97314 41.4337 8.67438V8.61152C41.4337 7.83577 41.2196 7.23307 40.7912 6.80328C40.3681 6.37349 39.7255 6.15862 38.8634 6.15862C37.9696 6.15862 37.2689 6.35251 36.7612 6.74035C36.2534 7.12825 35.8965 7.54232 35.6902 7.98254L33.9132 7.35361C34.2306 6.61981 34.6537 6.04851 35.1825 5.63969C35.7167 5.22563 36.2984 4.93736 36.9277 4.77492C37.5624 4.60719 38.1865 4.5233 38.8 4.5233C39.1913 4.5233 39.6409 4.57049 40.1486 4.66481C40.6616 4.75395 41.1561 4.93998 41.6321 5.22301C42.1133 5.50604 42.5126 5.93321 42.8299 6.50451C43.1473 7.07582 43.3059 7.84102 43.3059 8.80023V16.7564H41.4337V15.1211H41.3385C41.2116 15.3832 41 15.6635 40.7039 15.9624C40.4077 16.2612 40.0137 16.5152 39.5219 16.725C39.03 16.9347 38.4298 17.0396 37.7211 17.0396ZM38.0067 15.3728C38.7471 15.3728 39.3712 15.2288 39.8788 14.9405C40.3919 14.6521 40.7779 14.2798 41.0371 13.8242C41.3015 13.368 41.4337 12.8884 41.4337 12.3853V10.6871C41.3544 10.7814 41.1799 10.8679 40.9102 10.9465C40.6457 11.0199 40.339 11.0854 39.9899 11.1431C39.6462 11.1954 39.3103 11.2426 38.9824 11.2846C38.6598 11.3212 38.398 11.3527 38.197 11.3789C37.7105 11.4418 37.2557 11.544 36.8326 11.6855C36.4148 11.8218 36.0763 12.0288 35.8171 12.3066C35.5633 12.5791 35.4364 12.9513 35.4364 13.4228C35.4364 14.0677 35.677 14.5554 36.1583 14.8851C36.6448 15.2102 37.261 15.3728 38.0067 15.3728ZM52.0223 4.68054V6.25295H45.7077V4.68054H52.0223ZM47.5481 1.78737H49.4203V13.2969C49.4203 13.8213 49.497 14.2145 49.6503 14.4767C49.809 14.733 50.01 14.9061 50.2533 14.9952C50.5018 15.0791 50.7637 15.1211 51.0387 15.1211C51.2449 15.1211 51.4141 15.1106 51.5464 15.0896C51.6786 15.0634 51.7843 15.0424 51.8637 15.0267L52.2445 16.6935C52.1175 16.7407 51.9403 16.7879 51.713 16.8351C51.4855 16.8875 51.1973 16.9137 50.8483 16.9137C50.3194 16.9137 49.8011 16.8007 49.2934 16.5758C48.791 16.3504 48.3732 16.0072 48.04 15.5458C47.712 15.0844 47.5481 14.5029 47.5481 13.8003V1.78737ZM54.8385 16.7564V4.68054H56.7108V16.7564H54.8385ZM55.7905 2.66792C55.4256 2.66792 55.1109 2.54476 54.8465 2.29837C54.5873 2.05204 54.4578 1.75591 54.4578 1.41001C54.4578 1.06406 54.5873 0.767976 54.8465 0.521591C55.1109 0.275264 55.4256 0.1521 55.7905 0.1521C56.1554 0.1521 56.4675 0.275264 56.7266 0.521591C56.9911 0.767976 57.1233 1.06406 57.1233 1.41001C57.1233 1.75591 56.9911 2.05204 56.7266 2.29837C56.4675 2.54476 56.1554 2.66792 55.7905 2.66792ZM70.1039 4.68054L65.5978 16.7564H63.6937L59.1876 4.68054H61.2187L64.5826 14.3037H64.709L68.0728 4.68054H70.1039ZM77.2472 17.0081C76.0732 17.0081 75.0603 16.7512 74.2091 16.2373C73.3625 15.7188 72.7094 14.9952 72.2497 14.0677C71.7947 13.1347 71.5672 12.0498 71.5672 10.8128C71.5672 9.57591 71.7947 8.48573 72.2497 7.54232C72.7094 6.5936 73.3496 5.85462 74.1691 5.32526C74.9945 4.7906 75.9568 4.5233 77.0568 4.5233C77.6917 4.5233 78.3184 4.62817 78.9368 4.83779C79.5558 5.04747 80.119 5.38812 80.627 5.85986C81.1343 6.32629 81.5393 6.94479 81.8403 7.71523C82.1419 8.48573 82.293 9.4344 82.293 10.5613V11.3474H72.8999V9.74364H80.3889C80.3889 9.06228 80.2513 8.45427 79.9762 7.91967C79.7063 7.38507 79.3207 6.96314 78.818 6.65389C78.3207 6.34465 77.734 6.19002 77.0568 6.19002C76.3113 6.19002 75.6658 6.37349 75.1215 6.74035C74.5818 7.10204 74.1668 7.57372 73.8758 8.15551C73.5848 8.7373 73.4396 9.36099 73.4396 10.0267V11.0959C73.4396 12.0078 73.5983 12.781 73.9157 13.4152C74.2379 14.0438 74.6853 14.5239 75.2561 14.8536C75.8275 15.1787 76.4912 15.3413 77.2472 15.3413C77.7393 15.3413 78.1837 15.2731 78.58 15.1368C78.9821 14.9952 79.3283 14.7855 79.6193 14.5082C79.9103 14.225 80.1349 13.8737 80.2936 13.4542L82.1025 13.9576C81.9121 14.5658 81.5923 15.1001 81.1425 15.5615C80.6928 16.0177 80.1378 16.3737 79.4765 16.6306C78.8157 16.8823 78.0726 17.0081 77.2472 17.0081Z" fill="white"/>
</svg>
