<svg width="65" height="29" viewBox="0 0 65 29" fill="none" xmlns="http://www.w3.org/2000/svg">
<path d="M0.236328 28.5394V8.51884H5.66817V12.012H5.87857C6.24682 10.7694 6.86497 9.83093 7.73303 9.19659C8.6011 8.55356 9.60061 8.23208 10.7317 8.23208C11.0123 8.23208 11.3148 8.24944 11.6392 8.28422C11.9636 8.31895 12.2486 8.36678 12.4941 8.4276V13.3545C12.2311 13.2763 11.8672 13.2068 11.4025 13.146C10.9377 13.0852 10.5125 13.0547 10.1267 13.0547C9.30249 13.0547 8.566 13.2328 7.91716 13.5891C7.27708 13.9367 6.76856 14.4233 6.3915 15.049C6.02325 15.6746 5.83912 16.3958 5.83912 17.2126V28.5394H0.236328ZM15.3909 28.5394V8.51884H20.9936V28.5394H15.3909ZM18.2054 5.93806C17.3724 5.93806 16.6579 5.66435 16.0616 5.11687C15.4742 4.56077 15.1804 3.89602 15.1804 3.12266C15.1804 2.35799 15.4742 1.70191 16.0616 1.15449C16.6579 0.598334 17.3724 0.320312 18.2054 0.320312C19.0384 0.320312 19.7486 0.598334 20.336 1.15449C20.9323 1.70191 21.2304 2.35799 21.2304 3.12266C21.2304 3.89602 20.9323 4.56077 20.336 5.11687C19.7486 5.66435 19.0384 5.93806 18.2054 5.93806ZM42.2902 14.2278L37.1609 14.5406C37.0732 14.1062 36.8847 13.7151 36.5954 13.3675C36.306 13.0113 35.9246 12.7289 35.4511 12.5203C34.9864 12.3031 34.4297 12.1945 33.7808 12.1945C32.9128 12.1945 32.1806 12.3769 31.5844 12.7419C30.9882 13.0981 30.6901 13.5761 30.6901 14.1757C30.6901 14.6536 30.8829 15.0576 31.2688 15.3879C31.6545 15.7181 32.3165 15.9831 33.2547 16.1829L36.911 16.9128C38.875 17.3126 40.3393 17.9556 41.3038 18.8419C42.2683 19.7282 42.7506 20.8926 42.7506 22.3351C42.7506 23.6472 42.3604 24.7986 41.58 25.7892C40.8084 26.7798 39.7475 27.5531 38.3972 28.1092C37.0557 28.6567 35.5081 28.9304 33.7545 28.9304C31.0802 28.9304 28.9496 28.3786 27.3625 27.2751C25.7843 26.1628 24.8593 24.6508 24.5875 22.7392L30.0982 22.4524C30.2648 23.2605 30.6681 23.8775 31.3082 24.3032C31.9483 24.7204 32.7681 24.9289 33.7677 24.9289C34.7496 24.9289 35.5388 24.742 36.135 24.3684C36.74 23.9861 37.0469 23.4951 37.0557 22.8956C37.0469 22.3916 36.8321 21.9788 36.4112 21.6573C35.9904 21.3271 35.3415 21.0751 34.4647 20.9013L30.9662 20.2105C28.9934 19.8195 27.5248 19.1417 26.5603 18.1772C25.6045 17.2126 25.1267 15.9831 25.1267 14.4885C25.1267 13.2024 25.4774 12.0945 26.1789 11.1648C26.8891 10.235 27.8843 9.51813 29.1644 9.01412C30.4533 8.5101 31.9614 8.25812 33.6888 8.25812C36.2403 8.25812 38.2481 8.79255 39.7124 9.86135C41.1855 10.9301 42.0447 12.3856 42.2902 14.2278ZM55.4851 28.9304C53.407 28.9304 51.6184 28.5133 50.119 27.6791C48.6285 26.8362 47.4798 25.6458 46.6732 24.1078C45.8665 22.561 45.4632 20.7319 45.4632 18.6203C45.4632 16.5609 45.8665 14.7535 46.6732 13.1981C47.4798 11.6427 48.6153 10.4305 50.0796 9.56153C51.5526 8.69263 53.2799 8.25812 55.2615 8.25812C56.5942 8.25812 57.8348 8.47101 58.9835 8.89684C60.141 9.31393 61.1492 9.9439 62.0087 10.7868C62.8764 11.6297 63.5519 12.6898 64.0339 13.9671C64.516 15.2358 64.757 16.7217 64.757 18.4248V19.9498H47.699V16.5088H59.4832C59.4832 15.7093 59.308 15.0012 58.957 14.3842C58.6067 13.7673 58.1199 13.285 57.4973 12.9374C56.8836 12.5811 56.169 12.403 55.3536 12.403C54.5031 12.403 53.749 12.5985 53.0914 12.9895C52.4426 13.3719 51.934 13.8889 51.5658 14.5406C51.1975 15.1837 51.009 15.9006 51.0002 16.6913V19.9628C51.0002 20.9535 51.1843 21.8094 51.5526 22.5306C51.9296 23.2519 52.4601 23.8079 53.144 24.199C53.8279 24.59 54.6389 24.7855 55.5771 24.7855C56.1997 24.7855 56.7696 24.6986 57.2869 24.5248C57.8042 24.3511 58.2469 24.0903 58.6155 23.7428C58.9835 23.3952 59.2639 22.9694 59.4573 22.4654L64.6389 22.8043C64.3761 24.0382 63.8364 25.1157 63.021 26.0368C62.2145 26.9492 61.171 27.6617 59.8912 28.1744C58.6196 28.6784 57.1511 28.9304 55.4851 28.9304Z" fill="#F0E714"/>
</svg>
